<?xml version="1.0" standalone="no"?>
<!DOCTYPE svg PUBLIC "-//W3C//DTD SVG 20010904//EN"
 "http://www.w3.org/TR/2001/REC-SVG-20010904/DTD/svg10.dtd">
<svg version="1.0" xmlns="http://www.w3.org/2000/svg"
 width="690.000000pt" height="690.000000pt" viewBox="0 0 690.000000 690.000000"
 preserveAspectRatio="xMidYMid meet">
<metadata>
Created by potrace 1.15, written by Peter Selinger 2001-2017
</metadata>
<g transform="translate(0.000000,690.000000) scale(0.100000,-0.100000)"
fill="#ffffff" stroke="none">
<path d="M1303 5940 c-26 -11 -50 -45 -63 -90 -10 -36 3 -544 20 -790 46 -642
139 -1113 262 -1316 34 -55 39 -73 36 -107 -9 -83 -52 -412 -55 -416 -3 -4
-99 20 -135 34 -11 4 -18 3 -18 -4 0 -6 34 -28 75 -48 l75 -37 0 -83 c0 -65
-3 -83 -14 -83 -8 0 -47 16 -87 35 -71 34 -119 44 -119 26 0 -5 45 -32 101
-62 56 -29 103 -57 104 -63 2 -6 9 -90 14 -186 13 -209 31 -333 70 -489 83
-327 240 -604 464 -818 426 -407 1176 -585 1888 -447 600 116 1012 413 1258
909 136 273 204 555 227 937 l6 107 99 51 c54 28 99 55 99 60 0 19 -42 10
-117 -25 -42 -19 -77 -34 -78 -33 -1 2 -6 40 -9 84 l-7 82 65 31 c59 28 84 46
74 56 -2 2 -32 -5 -67 -16 -35 -10 -66 -18 -68 -16 -2 2 -10 62 -18 133 -9 71
-22 169 -31 217 l-15 88 40 72 c151 274 237 730 270 1427 18 371 23 693 12
722 -14 36 -66 68 -112 68 -24 0 -76 -20 -155 -59 -325 -159 -753 -452 -1304
-890 -167 -133 -139 -126 -370 -97 -169 21 -485 17 -630 -9 -47 -8 -95 -15
-107 -15 -12 0 -67 37 -131 88 -446 362 -792 609 -1148 817 -263 155 -334 182
-401 155z m130 -184 c43 -18 290 -249 457 -427 302 -321 574 -623 565 -626 -6
-2 -48 -26 -95 -54 -278 -165 -507 -411 -676 -728 -27 -49 -51 -88 -55 -85
-13 8 -98 285 -135 439 -81 339 -142 823 -160 1273 l-7 170 26 26 c30 30 36
31 80 12z m4123 -3 c15 -16 16 -37 11 -223 -13 -434 -73 -880 -168 -1265 -39
-158 -120 -425 -129 -425 -3 0 -37 51 -74 114 -135 227 -304 427 -480 571 -81
65 -232 165 -269 178 -22 7 390 483 627 725 167 170 281 268 368 315 59 31 90
34 114 10z m-2290 -1317 c-25 -72 -21 -183 7 -237 59 -110 205 -144 293 -67
58 51 88 121 87 203 0 42 -7 86 -17 109 -9 22 -14 41 -12 44 10 9 99 -65 131
-108 55 -75 70 -124 70 -225 0 -78 -4 -98 -28 -150 -37 -79 -114 -156 -191
-192 -54 -25 -73 -28 -156 -28 -82 0 -103 4 -152 27 -80 37 -151 107 -191 187
-29 59 -32 74 -32 156 0 76 4 99 27 147 28 61 95 140 143 169 16 10 31 17 33
15 2 -2 -4 -25 -12 -50z m-692 -705 c58 -21 193 -98 214 -123 8 -10 -10 -12
-91 -10 -284 9 -452 -91 -586 -348 -68 -131 -86 -205 -86 -360 0 -110 4 -149
23 -213 31 -110 75 -192 138 -257 103 -109 225 -150 433 -149 69 0 148 4 176
8 l50 9 -41 -37 c-55 -48 -137 -88 -237 -113 -112 -28 -267 -22 -384 16 -102
33 -217 108 -273 179 -124 155 -202 429 -186 649 18 240 106 413 303 597 88
83 183 140 274 166 71 20 195 13 273 -14z m2031 14 c122 -32 252 -127 372
-270 150 -181 214 -373 200 -609 -16 -270 -125 -509 -283 -622 -196 -140 -470
-163 -689 -59 -66 31 -175 115 -130 100 11 -4 85 -9 165 -12 226 -8 344 26
459 133 106 98 169 254 178 440 9 190 -31 333 -138 494 -128 191 -265 260
-519 260 l-124 0 50 35 c152 110 312 148 459 110z m-1900 -275 c140 -68 227
-263 196 -438 -16 -89 -49 -159 -103 -218 -118 -129 -303 -127 -419 4 -150
169 -138 451 27 601 90 82 197 100 299 51z m1715 -1 c134 -60 222 -233 207
-407 -14 -167 -109 -299 -245 -338 -101 -30 -203 5 -285 96 -167 186 -114 540
96 644 66 33 160 35 227 5z m-1980 -819 c24 -24 26 -79 5 -120 -32 -62 -133
-92 -175 -50 -24 24 -26 79 -5 121 33 63 133 91 175 49z m2151 5 c95 -49 88
-195 -8 -195 -73 0 -133 60 -133 133 0 69 68 99 141 62z"/>
</g>
</svg>
